# xmcd
#
# Track frame offsets:
#	188
#	16763
#	32888
#	46013
#	62288
#	77663
#	101438
#	115688
#	130548
#
# Disc length: 1940 seconds
#
# Revision: 0
# Processed by: cddbd v1.4PL0 Copyright (c) Steve Scherf et al.
# Submitted via: EasyCDDAExtractor 4.6.9.1
#
DISCID=59079209
DTITLE=Luis Felipe Reis - Lola
DYEAR=1900
DGENRE=
TTITLE0=Lola
TTITLE1=Ola Alentejo
TTITLE2=So Por Milagre
TTITLE3=Sorriso Maroto
TTITLE4=Corpo A Corpo
TTITLE5=Manuela E OTrovador
TTITLE6=Contigo Ao Luar
TTITLE7=A Luz Da Vela
TTITLE8=Falei Com Deus
EXTD=
EXTT0=
EXTT1=
EXTT2=
EXTT3=
EXTT4=
EXTT5=
EXTT6=
EXTT7=
EXTT8=
PLAYORDER=
